<?xml version="1.0" ?>
<!-- Uploaded to: SVG Repo, www.svgrepo.com, Generator: SVG Repo Mixer Tools -->
<svg fill="#000000" width="800px" height="800px" viewBox="0 -5.88 33.187 33.187" xmlns="http://www.w3.org/2000/svg">
<g transform="translate(-97.647 -133.589)">
<path d="M123.619,135.589a.6.6,0,0,1,.6.6V147.1a.6.6,0,0,1-.6.6H104.465a.6.6,0,0,1-.6-.6V136.19a.6.6,0,0,1,.6-.6h19.154m0-2H104.465a2.6,2.6,0,0,0-2.6,2.6V147.1a2.6,2.6,0,0,0,2.6,2.6h19.154a2.6,2.6,0,0,0,2.6-2.6V136.19a2.6,2.6,0,0,0-2.6-2.6Z"/>
<path d="M129.376,155.012H99.106a1.465,1.465,0,0,1-1.037-2.494l4.224-4.282a1,1,0,1,1,1.423,1.4l-3.326,3.372h27.7l-3.3-3.351a1,1,0,1,1,1.424-1.4l4.2,4.26a1.466,1.466,0,0,1-1.036,2.495Z"/>
</g>
</svg>